PathFileType	4	(X/Y/Z)	C:/Git/opensim_tutorial/tutorials/repeated_sprinting/Simulations/PC013/markers.trc	
DataRate	CameraRate	NumFrames	NumMarkers	Units	OrigDataRate	OrigDataStartFrame	OrigNumFrames	
100.00	100.00	7	49	mm	100.00	2976	302	
Frame#	Time	RASIS			LASIS			RPSIS			LPSIS			RTH1			RTH2			RTH3			RTH4			LTH1			LTH2			LTH3			LTH4			RLK			LLK			RSK1			RSK2			RSK3			RSK4			LSK1			LSK2			LSK3			LSK4			RLA			RMA			RHEE			RPCA			RLCA			RSTL			RP1MT			RD1MT			RP5MT			RD5MT			RTOE			RHLX			LLA			LMA			LHEE			LPCA			LLCA			LSTL			LP1MT			LP5MT			LD5MT			LTOE			RAC			LAC			C7			STRN1			STRN2			
		X1	Y1	Z1	X2	Y2	Z2	X3	Y3	Z3	X4	Y4	Z4	X5	Y5	Z5	X6	Y6	Z6	X7	Y7	Z7	X8	Y8	Z8	X9	Y9	Z9	X10	Y10	Z10	X11	Y11	Z11	X12	Y12	Z12	X13	Y13	Z13	X14	Y14	Z14	X15	Y15	Z15	X16	Y16	Z16	X17	Y17	Z17	X18	Y18	Z18	X19	Y19	Z19	X20	Y20	Z20	X21	Y21	Z21	X22	Y22	Z22	X23	Y23	Z23	X24	Y24	Z24	X25	Y25	Z25	X26	Y26	Z26	X27	Y27	Z27	X28	Y28	Z28	X29	Y29	Z29	X30	Y30	Z30	X31	Y31	Z31	X32	Y32	Z32	X33	Y33	Z33	X34	Y34	Z34	X35	Y35	Z35	X36	Y36	Z36	X37	Y37	Z37	X38	Y38	Z38	X39	Y39	Z39	X40	Y40	Z40	X41	Y41	Z41	X42	Y42	Z42	X43	Y43	Z43	X44	Y44	Z44	X45	Y45	Z45	X46	Y46	Z46	X47	Y47	Z47	X48	Y48	Z48	X49	Y49	Z49	

189	1.880	-315.74377	175.95265	794.67346	-247.93161	-30.66396	821.90259	-129.72807	174.93015	833.66266	-97.41463	79.67648	840.93988	-306.11453	190.04254	544.15430	-311.55411	166.74890	487.80960	-354.89822	138.31456	469.88596	-357.29642	141.59700	534.29254	-277.53796	-122.07630	611.04987	-327.99716	-131.46338	550.72192	-346.89847	-129.87163	606.77649	-310.52402	-121.70387	651.13562	-359.81241	96.85981	351.72751	-428.72208	-148.13748	459.57568	-188.84618	187.22073	229.10834	-251.35959	176.71971	193.67813	-205.12187	199.01036	193.35249	-180.47452	208.72891	164.21255	-328.78448	-119.44839	276.63568	-359.98907	-125.36729	300.54657	-349.63947	-134.90807	338.56998	-319.83691	-116.94906	358.21637	-130.19121	243.58389	81.74249	-136.51006	164.42056	46.32558	-53.45045	224.08453	50.24191	-79.82746	210.22304	80.58576	-96.47510	252.24173	56.05885	-82.11133	187.41252	31.20060	-187.43066	176.97614	36.13326	-226.22528	176.27589	16.36731	-152.18948	271.48801	29.40530	-203.18182	281.25781	27.07101	-221.55331	228.54111	49.95149	-259.72952	181.64330	12.33072	-221.82146	-74.25494	134.11647	-287.77588	-23.31090	107.53806	-194.18477	0.95489	121.99922	-215.21114	-11.33676	146.39429	-189.30917	-46.02551	114.97562	-233.58746	7.27940	106.83806	-313.67242	-69.46871	94.64277	-224.05447	-108.46601	75.94339	-251.24530	-148.97833	63.09897	-307.42416	-124.06777	95.53108	-292.19788	283.99457	1242.75659	-169.74936	-47.25443	1279.34521	-203.56396	138.44186	1318.61926	-336.96533	92.68011	1252.80957	-353.49173	72.48985	1199.19092 
190	1.890	-320.10272	176.09715	793.95221	-253.30931	-31.02257	821.71570	-134.02663	174.18001	832.10730	-102.33881	78.85824	839.74585	-311.32233	189.52361	543.46667	-316.74377	166.63483	486.89731	-359.83102	137.54219	469.19229	-361.96783	140.76146	533.58051	-284.22360	-124.21561	612.26666	-335.75287	-133.32950	552.47021	-354.27798	-131.43317	608.64087	-316.96527	-123.13886	652.56818	-362.97208	97.61707	350.08231	-438.04919	-150.29823	462.36188	-190.48901	187.00781	228.60413	-252.93425	176.86989	192.74809	-206.63759	198.99608	192.70061	-181.56973	208.48207	163.89493	-343.82755	-123.44512	275.88016	-374.23859	-128.86333	300.97144	-362.75565	-138.37543	338.74927	-332.19168	-120.69241	357.28305	-130.33586	243.18713	81.88718	-136.90190	164.12581	46.31408	-53.59321	223.53128	50.76556	-80.21363	209.55980	81.08342	-96.48231	251.74306	56.41440	-82.28238	186.96689	31.45802	-187.66513	176.93907	36.02938	-226.32811	176.41539	16.40517	-152.07806	271.28241	29.53651	-203.01962	281.31540	27.06790	-221.61154	228.63171	49.90053	-259.72736	181.83473	12.50852	-240.89772	-79.97364	129.83861	-307.05502	-28.23272	105.23121	-213.04143	-4.92739	116.95174	-233.56166	-16.78278	141.51703	-208.73576	-51.82125	109.68168	-252.65086	1.84799	103.00609	-333.63705	-74.13612	92.85518	-245.13162	-113.97955	71.30962	-273.02335	-154.17215	58.86905	-328.08182	-128.74902	92.89249	-299.83127	281.28699	1242.50415	-174.30412	-48.71573	1277.98669	-209.64619	136.41551	1317.79297	-342.37091	89.60361	1251.14648	-358.55017	69.54351	1197.44666 
191	1.900	-324.65152	176.06821	793.16602	-258.67209	-31.61575	821.39594	-138.40773	173.01712	830.74976	-107.29453	77.81351	838.41309	-316.68515	189.80894	542.75482	-322.01010	166.33406	485.74075	-364.85858	136.76407	468.44275	-366.71280	139.90442	532.83630	-291.27695	-126.00030	613.00751	-343.26999	-134.90410	553.48767	-361.34933	-132.85576	609.85956	-323.06931	-124.95495	653.03906	-366.15677	98.25218	348.30405	-447.06155	-152.31001	464.64511	-192.21053	186.59834	228.19060	-254.34601	176.93861	191.62796	-207.84262	198.78008	192.24918	-182.56296	208.23592	163.58585	-358.82370	-127.34769	274.64349	-389.48743	-132.00970	299.99191	-375.95181	-141.82359	338.12012	-344.52631	-124.65039	355.67313	-130.42952	242.71730	82.08515	-137.30766	163.73392	46.19112	-53.68172	222.67960	51.29639	-80.49854	208.76947	81.48959	-96.42776	251.06357	56.83073	-82.55767	186.40773	31.69779	-187.94632	176.81927	35.95654	-226.43787	176.50725	16.44385	-151.93570	270.93604	29.76155	-202.85852	281.28500	27.09350	-221.67754	228.67378	49.80573	-259.87778	182.03658	12.59182	-260.06949	-85.65580	124.92285	-326.45361	-33.31217	102.38605	-231.51588	-10.85956	111.36676	-251.65973	-22.61548	136.69040	-228.02139	-57.91755	103.84586	-271.40985	-3.87248	98.52488	-353.65521	-78.65382	90.26903	-266.42737	-119.58805	66.24252	-295.10983	-159.24423	54.16634	-349.07770	-133.27423	89.92504	-307.33588	278.38266	1242.32520	-178.83461	-50.59577	1276.74976	-215.59245	134.18690	1316.86401	-347.93042	86.52614	1249.43408	-363.67731	66.67453	1195.54663 
192	1.910	-329.26068	175.97029	792.47034	-264.60052	-32.18793	821.05591	-143.05826	171.72968	829.32343	-112.29937	76.57113	836.85669	-321.79956	189.71346	541.57361	-326.82755	166.07246	484.57538	-369.56567	136.14063	467.39981	-371.03812	138.98134	531.74670	-298.24771	-127.66962	613.13892	-350.58401	-136.31708	553.89447	-368.41077	-134.15831	610.41907	-329.59000	-126.53358	653.13477	-369.48590	98.73323	346.45676	-455.65619	-154.07608	466.02600	-193.80099	186.23842	227.73422	-255.86642	177.18576	190.89783	-209.17676	198.51407	191.64789	-183.57503	207.83824	163.26671	-373.82013	-131.14178	272.81573	-403.03879	-135.40497	299.72244	-389.11591	-145.19472	336.79764	-356.68051	-128.69482	353.21082	-130.51459	242.11414	82.40737	-137.75319	163.26022	46.15561	-53.78110	221.69080	52.00643	-80.93929	207.91570	81.88638	-96.43427	250.38028	57.29799	-82.71154	185.58463	31.93331	-188.24454	176.61159	35.76432	-226.58296	176.62466	16.44365	-151.84401	270.56989	29.96115	-202.67752	281.46252	27.34345	-221.79462	228.65691	49.75708	-259.99640	182.21219	12.71334	-279.24213	-91.41356	119.76367	-345.35272	-38.24139	99.23989	-250.00609	-16.99539	105.16048	-269.37695	-28.57824	131.30298	-247.47430	-64.03643	97.59608	-290.14789	-9.37963	93.36068	-373.59238	-83.10030	87.72529	-287.60251	-125.17736	60.70888	-317.53448	-164.06061	49.01977	-370.04346	-137.57294	86.46504	-314.74936	275.13858	1241.92041	-183.61649	-52.65437	1275.33301	-221.48346	131.67839	1316.01294	-353.44418	83.36903	1247.77295	-368.78879	63.66752	1193.79504 
193	1.920	-333.93015	175.83992	791.77393	-270.45764	-32.67119	820.20880	-147.69054	170.32321	827.77948	-117.47739	75.24413	835.38721	-326.09998	189.39493	540.25574	-331.30124	166.05037	483.40955	-373.85840	136.00722	466.02057	-375.33612	138.82753	530.26849	-305.03809	-129.17522	612.60382	-357.70288	-137.55467	553.62952	-375.21445	-135.36093	610.20087	-336.48349	-127.58743	653.36853	-372.93524	99.22960	344.55615	-463.78537	-155.59026	466.61032	-195.55028	185.69617	227.46774	-257.43890	177.25545	189.95940	-210.43048	198.24684	191.25394	-184.65186	207.42296	163.07980	-388.56860	-134.74521	270.37628	-417.06348	-138.18416	298.20911	-402.01385	-148.31949	334.82993	-368.60519	-132.61703	350.03174	-130.56432	241.52428	82.75069	-138.15904	162.84566	46.09505	-53.78370	220.65799	52.81872	-81.27025	207.01955	82.44520	-96.42899	249.66330	57.82360	-82.96608	184.83090	32.42639	-188.53783	176.46103	35.59852	-226.75363	176.56422	16.63440	-151.77791	270.20538	30.08863	-202.42270	281.41840	27.36517	-221.89432	228.67751	49.66905	-260.10968	182.43361	12.78102	-297.86465	-97.25258	114.05031	-363.89133	-42.97899	95.55323	-268.10995	-22.95429	98.79079	-287.07306	-34.36103	125.06534	-266.40610	-70.22530	90.71318	-308.56137	-14.75688	87.95667	-393.10083	-87.22669	84.45115	-309.05829	-130.69225	54.74812	-339.85727	-168.92116	43.60505	-390.76715	-141.68785	82.83744	-321.99051	271.91763	1241.55859	-188.60141	-54.82576	1273.80676	-227.49374	129.14709	1315.08826	-359.10922	80.07865	1246.29907	-373.99191	60.58357	1192.01392 
194	1.930	-338.78152	175.39682	790.95972	-276.31668	-34.03261	819.10175	-152.27333	168.63788	826.54877	-122.72944	73.37475	834.00720	-330.23355	189.54430	538.87244	-335.03922	166.12633	481.70645	-377.81671	136.44342	464.16064	-379.37717	138.85072	528.54041	-311.41904	-130.40450	611.39642	-364.08109	-138.15279	552.52246	-381.65683	-136.43967	609.25836	-342.80453	-128.89243	652.22614	-376.48871	99.74960	342.64029	-471.30627	-156.64607	466.32138	-197.22426	185.15314	227.12422	-258.99030	177.42078	189.11502	-211.62305	198.79004	191.44389	-185.71556	207.00441	162.94244	-402.87320	-137.81737	267.38657	-430.35452	-140.56329	296.24948	-414.45322	-151.08800	332.32892	-380.14346	-136.29866	346.28937	-131.05685	241.15344	83.05660	-138.87349	162.70255	46.06980	-53.89471	219.80615	53.75853	-81.64447	206.10741	83.00106	-96.43732	248.95691	58.43365	-83.07491	184.12914	33.09789	-188.78714	176.31477	35.50988	-226.87744	176.68845	16.65512	-151.67749	269.86945	30.19999	-202.19336	281.33185	27.38789	-221.98241	228.66582	49.62415	-260.18082	182.62227	12.87303	-316.39169	-102.64197	107.95457	-381.84439	-47.37725	91.35445	-285.67328	-28.93187	91.40305	-303.71683	-39.92207	118.73328	-285.07202	-76.06789	83.59874	-326.16913	-20.05877	82.19717	-412.03873	-91.17534	81.16569	-329.78311	-136.18369	48.37802	-361.67975	-173.58804	37.76818	-410.86304	-145.64243	79.02265	-329.12946	268.45319	1241.18884	-193.67831	-57.13874	1272.35730	-233.32687	126.30747	1314.08875	-364.68600	76.64361	1244.68115	-379.27942	57.49430	1190.33911 
195	1.940	-343.84509	174.68895	789.97211	-282.59137	-35.24599	818.06281	-157.19820	166.83803	825.20087	-128.30299	71.50566	832.56036	-333.99069	189.50130	537.69122	-338.75775	166.34430	480.42990	-381.66159	136.87256	462.58368	-383.51529	139.08665	526.82764	-317.50296	-131.17607	609.29395	-369.92139	-138.45203	550.61456	-387.69473	-137.46622	607.29529	-349.15582	-130.30528	650.40100	-380.05927	100.29702	340.72205	-478.29025	-157.07715	465.04517	-198.98940	184.34119	226.52881	-260.31223	177.49117	188.46848	-213.09341	198.54875	191.03517	-186.77420	206.55421	162.85469	-416.42569	-140.57709	263.90817	-443.03201	-142.65167	293.80533	-426.26663	-153.33928	329.29373	-391.09726	-139.57300	342.07278	-131.35252	240.61436	83.53464	-139.25815	162.11047	46.12083	-54.02685	218.79703	54.54302	-82.15844	205.23592	83.72101	-96.39283	248.13116	59.21040	-83.31532	183.43781	33.58023	-189.03516	176.19919	35.41682	-226.97543	176.83058	16.66411	-151.54868	269.41833	30.36949	-201.98888	281.22708	27.37716	-222.07245	228.65285	49.59406	-260.32745	182.87915	13.10051	-333.81815	-107.75629	101.37567	-398.80890	-51.62811	86.80336	-302.39334	-34.36958	84.05119	-319.72519	-45.18297	111.69393	-302.69693	-81.87336	76.28377	-343.41235	-24.62672	76.33110	-429.97186	-94.94594	77.62840	-349.61853	-141.32079	41.56024	-382.70593	-177.97084	31.50694	-430.01706	-149.19565	74.77925	-336.17606	264.99030	1240.74060	-198.72507	-59.86990	1270.98755	-239.02927	123.26206	1313.11206	-370.45007	73.34094	1243.10461	-384.61359	54.30436	1188.72644 
